# xmcd
#
# Track frame offsets: 
#        150
#        20596
#        40405
#        61223
#        81588
#        100982
#        124394
#        146583
#        168032
#        192684
#        210252
#        231039
#        253240
#
# Disc length: 3679 seconds
#
# Revision: 1
# Processed by: cddbd v1.4PL0 Copyright (c) Steve Scherf et al.
# Submitted via: ExactAudioCopy v0.90b4
#
DISCID=bc0e5d0d
DTITLE=Gerald LeVert - The G Spot
DYEAR=2002
DGENRE=R&B
TTITLE0=Too Much Room w/Mystikal
TTITLE1=Since You Ain't Around
TTITLE2=Wilding Me Out
TTITLE3=Funny
TTITLE4=The Top Of My Head
TTITLE5=The G Spot
TTITLE6=Oh What A Night (feat Roy Ayers)
TTITLE7=Closure
TTITLE8=Raindrops
TTITLE9=Your Smile
TTITLE10=Backbone
TTITLE11=Catchin' Feelings
TTITLE12=All That Matters
EXTD=
EXTT0=
EXTT1=
EXTT2=
EXTT3=
EXTT4=
EXTT5=
EXTT6=
EXTT7=
EXTT8=
EXTT9=
EXTT10=
EXTT11=
EXTT12=
PLAYORDER=
